<svg xmlns="http://www.w3.org/2000/svg" xmlns:xlink="http://www.w3.org/1999/xlink" width="500" zoomAndPan="magnify" viewBox="0 0 375 374.999991" height="500" preserveAspectRatio="xMidYMid meet" version="1.0"><defs><g/><clipPath id="462c5b525a"><path d="M 18.113281 124.769531 L 356.878906 124.769531 L 356.878906 243.851562 L 18.113281 243.851562 Z M 18.113281 124.769531 " clip-rule="nonzero"/></clipPath><clipPath id="b7ae8996fe"><path d="M 82.164062 225.175781 L 292.835938 225.175781 L 292.835938 260.957031 L 82.164062 260.957031 Z M 82.164062 225.175781 " clip-rule="nonzero"/></clipPath></defs><g clip-path="url(#462c5b525a)"><path stroke-linecap="butt" transform="matrix(0.75, 0, 0, 0.75, 18.111445, 124.768528)" fill="none" stroke-linejoin="miter" d="M 0.00244845 0.00133792 L 451.689978 0.00133792 L 451.689978 158.77739 L 0.00244845 158.77739 Z M 0.00244845 0.00133792 " stroke="#000000" stroke-width="2" stroke-opacity="1" stroke-miterlimit="4"/></g><g fill="#000000" fill-opacity="1"><g transform="translate(64.322142, 211.261457)"><g><path d="M 45 -25.609375 C 45.164062 -25.609375 45.300781 -25.53125 45.40625 -25.375 C 45.40625 -25.207031 45.378906 -25.097656 45.328125 -25.046875 C 45.222656 -24.878906 45.007812 -24.742188 44.6875 -24.640625 C 37.625 -21.140625 31.722656 -17.585938 26.984375 -13.984375 C 24.554688 -12.148438 21.8125 -9.75 18.75 -6.78125 C 18.3125 -6.351562 17.90625 -5.707031 17.53125 -4.84375 C 16.132812 -0.96875 14.25 2.503906 11.875 5.578125 L 10.75 6.953125 C 10.425781 7.273438 10.179688 7.488281 10.015625 7.59375 C 9.640625 7.96875 9.238281 8.050781 8.8125 7.84375 C 8.539062 7.675781 8.40625 7.296875 8.40625 6.703125 C 8.457031 6.054688 8.671875 5.382812 9.046875 4.6875 C 9.691406 3.34375 10.472656 1.992188 11.390625 0.640625 C 12.898438 -1.566406 14.488281 -3.53125 16.15625 -5.25 C 16.695312 -5.894531 17.019531 -6.4375 17.125 -6.875 C 18.6875 -12.257812 19.628906 -15.894531 19.953125 -17.78125 C 20.441406 -20.363281 20.203125 -22.921875 19.234375 -25.453125 C 18.367188 -27.441406 16.96875 -28.84375 15.03125 -29.65625 C 13.945312 -30.03125 12.382812 -30.429688 10.34375 -30.859375 C 9.644531 -30.972656 8.644531 -31.082031 7.34375 -31.1875 C 6.050781 -31.289062 5.164062 -31.375 4.6875 -31.4375 C 4.582031 -31.4375 4.429688 -31.445312 4.234375 -31.46875 C 4.046875 -31.5 3.898438 -31.539062 3.796875 -31.59375 C 1.960938 -31.96875 0.96875 -33.125 0.8125 -35.0625 C 0.757812 -35.875 0.921875 -36.875 1.296875 -38.0625 C 1.566406 -38.863281 2.050781 -39.882812 2.75 -41.125 C 5.175781 -45.113281 7.84375 -48.476562 10.75 -51.21875 C 13.007812 -53.375 15.40625 -55.019531 17.9375 -56.15625 C 19.445312 -56.75 20.847656 -56.910156 22.140625 -56.640625 C 22.835938 -56.535156 23.347656 -56.375 23.671875 -56.15625 C 23.941406 -55.988281 24.078125 -55.742188 24.078125 -55.421875 C 23.972656 -55.097656 23.785156 -54.9375 23.515625 -54.9375 C 23.242188 -54.832031 22.785156 -54.78125 22.140625 -54.78125 C 20.953125 -54.78125 19.765625 -54.457031 18.578125 -53.8125 C 16.421875 -52.726562 14.507812 -51.4375 12.84375 -49.9375 C 9.5625 -46.757812 6.816406 -43.253906 4.609375 -39.421875 C 4.171875 -38.671875 3.847656 -38.054688 3.640625 -37.578125 C 3.421875 -37.140625 3.226562 -36.679688 3.0625 -36.203125 C 2.800781 -35.117188 2.816406 -34.347656 3.109375 -33.890625 C 3.410156 -33.429688 4.070312 -33.097656 5.09375 -32.890625 C 5.519531 -32.773438 5.988281 -32.675781 6.5 -32.59375 C 7.007812 -32.519531 7.585938 -32.441406 8.234375 -32.359375 C 8.878906 -32.273438 9.367188 -32.207031 9.703125 -32.15625 C 11.253906 -31.832031 12.921875 -31.375 14.703125 -30.78125 C 17.722656 -29.757812 19.691406 -27.632812 20.609375 -24.40625 C 21.359375 -21.757812 21.382812 -18.929688 20.6875 -15.921875 C 19.925781 -13.117188 19.382812 -10.988281 19.0625 -9.53125 C 19.007812 -9.425781 18.957031 -9.238281 18.90625 -8.96875 C 18.851562 -8.695312 18.828125 -8.535156 18.828125 -8.484375 C 18.984375 -8.484375 19.28125 -8.617188 19.71875 -8.890625 C 24.34375 -13.359375 29.59375 -17.289062 35.46875 -20.6875 C 35.957031 -20.957031 36.671875 -21.375 37.609375 -21.9375 C 38.554688 -22.5 39.269531 -22.914062 39.75 -23.1875 C 41.15625 -24.050781 42.664062 -24.78125 44.28125 -25.375 Z M 15.59375 -3.46875 L 15.59375 -3.5625 L 15.515625 -3.46875 Z M 15.1875 -2.015625 C 15.507812 -2.554688 15.644531 -3.015625 15.59375 -3.390625 L 15.515625 -3.390625 C 15.398438 -3.285156 15.234375 -3.082031 15.015625 -2.78125 C 14.804688 -2.488281 14.625 -2.257812 14.46875 -2.09375 C 13.226562 -0.644531 11.988281 1.101562 10.75 3.15625 C 9.988281 4.5 9.53125 5.46875 9.375 6.0625 C 9.257812 6.382812 9.257812 6.625 9.375 6.78125 C 9.59375 6.78125 9.804688 6.617188 10.015625 6.296875 C 10.554688 5.648438 10.960938 5.140625 11.234375 4.765625 C 12.847656 2.453125 14.164062 0.191406 15.1875 -2.015625 Z M 15.1875 -2.015625 "/></g></g></g><g fill="#000000" fill-opacity="1"><g transform="translate(108.112267, 211.261457)"><g><path d="M 3.15625 -19.3125 C 2.445312 -18.613281 1.851562 -18.722656 1.375 -19.640625 C 1.101562 -20.285156 0.914062 -21.066406 0.8125 -21.984375 C 0.695312 -24.398438 0.859375 -26.5 1.296875 -28.28125 C 2.210938 -32.800781 3.742188 -37.726562 5.890625 -43.0625 C 6.972656 -45.539062 8.296875 -47.804688 9.859375 -49.859375 C 10.398438 -50.660156 10.992188 -51.273438 11.640625 -51.703125 C 12.066406 -52.023438 12.492188 -52.269531 12.921875 -52.4375 C 13.679688 -52.707031 14.300781 -52.519531 14.78125 -51.875 C 15.21875 -51.28125 15.4375 -50.578125 15.4375 -49.765625 C 15.488281 -48.640625 15.328125 -47.296875 14.953125 -45.734375 C 14.410156 -43.359375 13.492188 -40.960938 12.203125 -38.546875 C 10.148438 -34.453125 7.941406 -31.003906 5.578125 -28.203125 C 4.285156 -26.796875 3.421875 -25.90625 2.984375 -25.53125 C 2.609375 -25.257812 2.421875 -24.960938 2.421875 -24.640625 C 2.148438 -22.921875 2.203125 -21.382812 2.578125 -20.03125 C 3.117188 -20.300781 3.660156 -20.816406 4.203125 -21.578125 L 7.03125 -24.71875 C 7.457031 -25.257812 8.050781 -25.800781 8.8125 -26.34375 C 9.1875 -26.71875 9.585938 -26.929688 10.015625 -26.984375 C 10.984375 -27.253906 11.710938 -27.039062 12.203125 -26.34375 C 12.742188 -25.75 13.203125 -25.128906 13.578125 -24.484375 C 14.378906 -23.023438 15.519531 -22.144531 17 -21.84375 C 18.488281 -21.550781 19.957031 -21.972656 21.40625 -23.109375 L 23.59375 -25.046875 C 23.75 -25.210938 23.988281 -25.398438 24.3125 -25.609375 C 24.3125 -25.722656 24.394531 -25.695312 24.5625 -25.53125 C 24.613281 -25.53125 24.640625 -25.476562 24.640625 -25.375 L 24.5625 -25.296875 C 23.21875 -23.617188 21.789062 -22.40625 20.28125 -21.65625 C 19.144531 -20.957031 17.820312 -20.78125 16.3125 -21.125 C 14.8125 -21.476562 13.679688 -22.328125 12.921875 -23.671875 C 12.171875 -24.859375 11.742188 -25.53125 11.640625 -25.6875 C 11.097656 -26.5 10.394531 -26.632812 9.53125 -26.09375 C 9.050781 -25.820312 8.539062 -25.421875 8 -24.890625 C 7.082031 -24.023438 6.03125 -22.8125 4.84375 -21.25 C 4.738281 -21.082031 4.578125 -20.863281 4.359375 -20.59375 C 4.148438 -20.332031 3.945312 -20.09375 3.75 -19.875 C 3.5625 -19.65625 3.363281 -19.46875 3.15625 -19.3125 Z M 2.75 -26.5 L 2.984375 -26.5 C 3.035156 -26.550781 3.144531 -26.644531 3.3125 -26.78125 C 3.476562 -26.914062 3.613281 -27.050781 3.71875 -27.1875 C 3.820312 -27.320312 3.929688 -27.441406 4.046875 -27.546875 C 7.328125 -31.160156 10.179688 -35.550781 12.609375 -40.71875 C 13.304688 -42.28125 13.84375 -43.789062 14.21875 -45.25 C 14.644531 -46.695312 14.859375 -48.066406 14.859375 -49.359375 C 14.859375 -49.847656 14.78125 -50.335938 14.625 -50.828125 C 14.25 -51.679688 13.628906 -51.867188 12.765625 -51.390625 C 12.066406 -50.847656 11.53125 -50.253906 11.15625 -49.609375 C 10.769531 -49.015625 10.253906 -48.125 9.609375 -46.9375 C 8.109375 -44.25 6.707031 -40.882812 5.40625 -36.84375 C 4.28125 -33.613281 3.445312 -30.734375 2.90625 -28.203125 C 2.800781 -27.285156 2.75 -26.71875 2.75 -26.5 Z M 2.75 -26.5 "/></g></g></g><g fill="#000000" fill-opacity="1"><g transform="translate(131.138435, 211.261457)"><g><path d="M 2.578125 -19.3125 C 1.234375 -19.414062 0.398438 -20.171875 0.078125 -21.578125 C 0.0234375 -21.898438 0 -22.359375 0 -22.953125 C 0 -24.617188 0.347656 -26.070312 1.046875 -27.3125 C 1.484375 -27.957031 1.832031 -28.390625 2.09375 -28.609375 C 2.53125 -28.929688 3.019531 -29.09375 3.5625 -29.09375 C 4.144531 -29.09375 4.546875 -28.875 4.765625 -28.4375 C 5.085938 -27.957031 5.035156 -27.445312 4.609375 -26.90625 C 3.640625 -25.882812 2.722656 -25.265625 1.859375 -25.046875 C 1.265625 -24.941406 0.914062 -24.507812 0.8125 -23.75 C 0.695312 -22.832031 0.773438 -22.078125 1.046875 -21.484375 C 1.367188 -20.679688 1.878906 -20.226562 2.578125 -20.125 C 4.578125 -19.90625 7.273438 -21.492188 10.671875 -24.890625 L 11.390625 -25.609375 C 11.554688 -25.609375 11.664062 -25.582031 11.71875 -25.53125 C 11.769531 -25.425781 11.796875 -25.347656 11.796875 -25.296875 C 11.796875 -25.128906 11.742188 -24.992188 11.640625 -24.890625 C 10.453125 -23.484375 8.925781 -22.1875 7.0625 -21 C 5.207031 -19.820312 3.710938 -19.257812 2.578125 -19.3125 Z M 1.453125 -26.09375 C 2.585938 -26.632812 3.34375 -27.175781 3.71875 -27.71875 C 3.820312 -27.769531 3.820312 -27.847656 3.71875 -27.953125 C 3.71875 -28.066406 3.632812 -28.125 3.46875 -28.125 C 3.144531 -28.226562 2.847656 -28.144531 2.578125 -27.875 C 1.992188 -27.382812 1.617188 -26.789062 1.453125 -26.09375 Z M 1.453125 -26.09375 "/></g></g></g><g fill="#000000" fill-opacity="1"><g transform="translate(141.318428, 211.261457)"><g><path d="M 18.984375 -25.53125 L 18.984375 -25.296875 C 18.609375 -25.078125 18.097656 -24.96875 17.453125 -24.96875 C 14.597656 -24.851562 9.75 -23.691406 2.90625 -21.484375 C 2.425781 -21.273438 2.15625 -21.035156 2.09375 -20.765625 C 2.09375 -20.441406 2.3125 -20.171875 2.75 -19.953125 C 4.3125 -19.421875 5.710938 -18.210938 6.953125 -16.328125 C 7.804688 -14.816406 8.101562 -13.09375 7.84375 -11.15625 C 7.84375 -10.988281 7.785156 -10.742188 7.671875 -10.421875 C 7.078125 -8.804688 6 -8.320312 4.4375 -8.96875 C 3.789062 -9.238281 3.171875 -9.804688 2.578125 -10.671875 C 1.503906 -12.335938 0.804688 -14.113281 0.484375 -16 L 0.078125 -19.0625 C 0.078125 -19.550781 -0.191406 -19.820312 -0.734375 -19.875 L -1.859375 -19.875 C -2.234375 -19.976562 -2.421875 -20.113281 -2.421875 -20.28125 C -2.421875 -20.550781 -2.234375 -20.738281 -1.859375 -20.84375 C -1.753906 -20.84375 -1.539062 -20.867188 -1.21875 -20.921875 C -0.894531 -20.972656 -0.632812 -21.039062 -0.4375 -21.125 C -0.25 -21.207031 -0.101562 -21.359375 0 -21.578125 C 0.101562 -21.734375 0.171875 -21.921875 0.203125 -22.140625 C 0.234375 -22.359375 0.25 -22.597656 0.25 -22.859375 C 0.25 -23.128906 0.25 -23.320312 0.25 -23.4375 C 0.625 -27.3125 1.238281 -30.59375 2.09375 -33.28125 C 2.800781 -35.382812 3.664062 -37.242188 4.6875 -38.859375 C 5.875 -40.640625 7.570312 -42.09375 9.78125 -43.21875 C 10.3125 -43.488281 10.898438 -43.679688 11.546875 -43.796875 C 12.359375 -43.898438 13.070312 -43.734375 13.6875 -43.296875 C 14.3125 -42.867188 14.703125 -42.28125 14.859375 -41.53125 C 14.921875 -41.363281 14.976562 -41.117188 15.03125 -40.796875 C 15.082031 -40.472656 15.109375 -40.285156 15.109375 -40.234375 C 15.003906 -38.347656 14.382812 -36.382812 13.25 -34.34375 C 12.28125 -32.5625 10.664062 -30.703125 8.40625 -28.765625 C 6.351562 -27.148438 4.628906 -25.9375 3.234375 -25.125 C 2.640625 -24.75 2.316406 -24.238281 2.265625 -23.59375 C 2.148438 -22.894531 2.160156 -22.476562 2.296875 -22.34375 C 2.429688 -22.207031 2.878906 -22.25 3.640625 -22.46875 C 3.910156 -22.519531 4.726562 -22.773438 6.09375 -23.234375 C 7.46875 -23.691406 8.640625 -24.066406 9.609375 -24.359375 C 10.578125 -24.648438 11.882812 -24.941406 13.53125 -25.234375 C 15.175781 -25.535156 16.753906 -25.71875 18.265625 -25.78125 C 18.585938 -25.78125 18.828125 -25.75 18.984375 -25.6875 Z M 3.71875 -31.75 C 3.070312 -29.269531 2.722656 -27.382812 2.671875 -26.09375 L 2.671875 -25.78125 L 3.0625 -26.09375 C 6.625 -28.351562 9.375 -30.722656 11.3125 -33.203125 C 12.5 -34.660156 13.332031 -36.332031 13.8125 -38.21875 C 14.132812 -39.1875 14.21875 -40.15625 14.0625 -41.125 C 13.789062 -42.363281 13.035156 -42.929688 11.796875 -42.828125 C 11.097656 -42.828125 10.453125 -42.609375 9.859375 -42.171875 C 8.191406 -41.203125 6.976562 -39.960938 6.21875 -38.453125 C 5.300781 -36.679688 4.46875 -34.445312 3.71875 -31.75 Z M 2.1875 -19.15625 C 2.019531 -18.34375 2.097656 -17.238281 2.421875 -15.84375 C 2.742188 -14.0625 3.335938 -12.46875 4.203125 -11.0625 C 4.523438 -10.476562 4.957031 -10.078125 5.5 -9.859375 C 6.03125 -9.691406 6.457031 -9.851562 6.78125 -10.34375 C 7 -10.820312 7.160156 -11.382812 7.265625 -12.03125 C 7.429688 -13.488281 7.015625 -14.929688 6.015625 -16.359375 C 5.023438 -17.785156 3.910156 -18.71875 2.671875 -19.15625 Z M 2.1875 -19.15625 "/></g></g></g><g fill="#000000" fill-opacity="1"><g transform="translate(158.68905, 211.261457)"><g><path d="M 9.609375 -22.21875 C 8.429688 -21.894531 7.757812 -22.351562 7.59375 -23.59375 C 7.539062 -24.238281 7.59375 -24.96875 7.75 -25.78125 C 7.863281 -26.363281 7.894531 -26.738281 7.84375 -26.90625 C 7.726562 -26.90625 7.617188 -26.878906 7.515625 -26.828125 C 7.410156 -26.773438 7.328125 -26.71875 7.265625 -26.65625 C 7.210938 -26.601562 7.144531 -26.535156 7.0625 -26.453125 C 6.988281 -26.378906 6.925781 -26.316406 6.875 -26.265625 C 5.632812 -25.179688 4.5 -24.398438 3.46875 -23.921875 C 3.09375 -23.703125 2.71875 -23.507812 2.34375 -23.34375 C 1.800781 -23.1875 1.378906 -23.242188 1.078125 -23.515625 C 0.785156 -23.785156 0.695312 -24.1875 0.8125 -24.71875 C 0.8125 -24.832031 0.863281 -25.050781 0.96875 -25.375 C 1.289062 -26.125 1.773438 -26.742188 2.421875 -27.234375 C 3.554688 -28.035156 4.6875 -28.035156 5.8125 -27.234375 L 5.890625 -27.140625 L 5.984375 -27.140625 C 6.359375 -26.878906 6.679688 -26.878906 6.953125 -27.140625 L 8.484375 -28.6875 C 8.753906 -28.894531 8.96875 -28.914062 9.125 -28.75 C 9.289062 -28.59375 9.316406 -28.460938 9.203125 -28.359375 C 9.148438 -27.929688 9.019531 -27.285156 8.8125 -26.421875 C 8.539062 -25.398438 8.429688 -24.457031 8.484375 -23.59375 C 8.535156 -23.164062 8.804688 -22.976562 9.296875 -23.03125 C 10.097656 -23.132812 12.25 -24.019531 15.75 -25.6875 C 15.96875 -25.6875 16.101562 -25.632812 16.15625 -25.53125 C 16.269531 -25.257812 16.132812 -25.015625 15.75 -24.796875 C 12.945312 -23.398438 10.898438 -22.539062 9.609375 -22.21875 Z M 2.75 -24.40625 C 3.34375 -24.613281 3.960938 -24.910156 4.609375 -25.296875 C 4.984375 -25.554688 5.195312 -25.769531 5.25 -25.9375 C 5.300781 -26.039062 5.234375 -26.132812 5.046875 -26.21875 C 4.859375 -26.300781 4.628906 -26.34375 4.359375 -26.34375 C 3.929688 -26.226562 3.609375 -26.117188 3.390625 -26.015625 C 2.742188 -25.535156 2.3125 -25.023438 2.09375 -24.484375 C 2.363281 -24.265625 2.582031 -24.238281 2.75 -24.40625 Z M 2.75 -24.40625 "/></g></g></g><g fill="#000000" fill-opacity="1"><g transform="translate(173.231893, 211.261457)"><g><path d="M 8.078125 -16.8125 C 5.492188 -16.8125 3.53125 -17.992188 2.1875 -20.359375 C 2.125 -20.578125 2.023438 -20.875 1.890625 -21.25 C 1.765625 -21.625 1.644531 -21.894531 1.53125 -22.0625 C 0.507812 -24.101562 0.457031 -28.195312 1.375 -34.34375 C 2.238281 -40.425781 3.9375 -46.347656 6.46875 -52.109375 C 7.488281 -54.429688 8.59375 -56.398438 9.78125 -58.015625 C 10.3125 -58.765625 11.09375 -59.625 12.125 -60.59375 C 12.769531 -61.132812 13.492188 -61.617188 14.296875 -62.046875 C 15.328125 -62.484375 16.328125 -62.484375 17.296875 -62.046875 C 18.265625 -61.617188 18.9375 -60.894531 19.3125 -59.875 C 19.632812 -59.007812 19.796875 -57.90625 19.796875 -56.5625 C 19.742188 -54.5625 19.3125 -52.457031 18.5 -50.25 C 17.632812 -47.9375 16.15625 -44.945312 14.0625 -41.28125 C 11.414062 -36.707031 8.101562 -31.832031 4.125 -26.65625 C 3.957031 -26.550781 3.765625 -26.335938 3.546875 -26.015625 C 3.335938 -25.691406 3.175781 -25.476562 3.0625 -25.375 C 2.632812 -24.882812 2.503906 -24.34375 2.671875 -23.75 C 3.203125 -22.03125 3.578125 -20.984375 3.796875 -20.609375 C 4.984375 -18.554688 6.757812 -17.613281 9.125 -17.78125 C 11.394531 -18.039062 13.875 -20.25 16.5625 -24.40625 C 16.664062 -24.664062 16.878906 -25.015625 17.203125 -25.453125 C 17.265625 -25.503906 17.347656 -25.53125 17.453125 -25.53125 C 17.609375 -25.476562 17.6875 -25.34375 17.6875 -25.125 C 17.53125 -24.800781 17.453125 -24.640625 17.453125 -24.640625 C 14.597656 -19.578125 11.472656 -16.96875 8.078125 -16.8125 Z M 2.578125 -26.171875 C 2.796875 -26.285156 3.175781 -26.691406 3.71875 -27.390625 C 4.144531 -28.035156 4.960938 -29.191406 6.171875 -30.859375 C 7.390625 -32.535156 8.320312 -33.832031 8.96875 -34.75 C 12.039062 -39.320312 14.460938 -43.441406 16.234375 -47.109375 C 17.640625 -49.847656 18.53125 -52.539062 18.90625 -55.1875 C 19.125 -57.019531 19.046875 -58.445312 18.671875 -59.46875 C 18.335938 -60.382812 17.765625 -60.988281 16.953125 -61.28125 C 16.148438 -61.582031 15.320312 -61.460938 14.46875 -60.921875 C 14.082031 -60.648438 13.566406 -60.191406 12.921875 -59.546875 C 11.472656 -58.035156 10.179688 -56.175781 9.046875 -53.96875 C 7.273438 -50.46875 5.796875 -46.5625 4.609375 -42.25 C 3.253906 -37.507812 2.5 -32.582031 2.34375 -27.46875 C 2.34375 -26.820312 2.421875 -26.390625 2.578125 -26.171875 Z M 2.578125 -26.171875 "/></g></g></g><g fill="#000000" fill-opacity="1"><g transform="translate(188.986645, 211.261457)"><g><path d="M 2.5 -29.25 C 2.34375 -29.25 2.222656 -29.273438 2.140625 -29.328125 C 2.054688 -29.378906 2.039062 -29.460938 2.09375 -29.578125 C 2.207031 -30.546875 2.476562 -31.351562 2.90625 -32 C 2.90625 -32.050781 3.039062 -32.078125 3.3125 -32.078125 C 3.363281 -32.078125 3.472656 -31.992188 3.640625 -31.828125 C 3.691406 -31.722656 3.71875 -31.5625 3.71875 -31.34375 C 3.445312 -30.375 3.257812 -29.8125 3.15625 -29.65625 C 2.988281 -29.382812 2.769531 -29.25 2.5 -29.25 Z M 2.265625 -20.765625 C 1.023438 -21.140625 0.40625 -21.972656 0.40625 -23.265625 C 0.40625 -24.128906 0.59375 -24.910156 0.96875 -25.609375 C 1.132812 -25.929688 1.40625 -26.066406 1.78125 -26.015625 C 2.15625 -25.910156 2.34375 -25.671875 2.34375 -25.296875 L 2.34375 -24.40625 C 2.34375 -24.1875 2.316406 -23.992188 2.265625 -23.828125 L 2.265625 -23.59375 C 2.210938 -23 2.359375 -22.523438 2.703125 -22.171875 C 3.054688 -21.828125 3.53125 -21.65625 4.125 -21.65625 C 4.550781 -21.65625 5.085938 -21.789062 5.734375 -22.0625 C 6.703125 -22.4375 7.804688 -23.109375 9.046875 -24.078125 L 10.984375 -25.53125 C 11.253906 -25.695312 11.441406 -25.75 11.546875 -25.6875 C 11.660156 -25.6875 11.71875 -25.601562 11.71875 -25.4375 C 11.71875 -25.28125 11.660156 -25.203125 11.546875 -25.203125 C 9.128906 -23.210938 7.140625 -21.84375 5.578125 -21.09375 C 4.441406 -20.550781 3.335938 -20.441406 2.265625 -20.765625 Z M 2.265625 -20.765625 "/></g></g></g><g fill="#000000" fill-opacity="1"><g transform="translate(199.08584, 211.261457)"><g/></g></g><g fill="#000000" fill-opacity="1"><g transform="translate(221.708049, 211.261457)"><g><path d="M 34.171875 -25.78125 C 34.285156 -25.613281 34.234375 -25.421875 34.015625 -25.203125 C 33.203125 -24.722656 32.742188 -24.457031 32.640625 -24.40625 C 27.410156 -21.007812 23.859375 -18.582031 21.984375 -17.125 C 20.578125 -16 17.773438 -13.601562 13.578125 -9.9375 C 13.460938 -9.71875 13.203125 -9.234375 12.796875 -8.484375 C 12.398438 -7.734375 12.144531 -7.25 12.03125 -7.03125 C 11.925781 -6.8125 11.695312 -6.390625 11.34375 -5.765625 C 11 -5.148438 10.742188 -4.722656 10.578125 -4.484375 C 10.421875 -4.242188 10.179688 -3.878906 9.859375 -3.390625 C 9.535156 -2.910156 9.265625 -2.546875 9.046875 -2.296875 C 8.828125 -2.054688 8.554688 -1.757812 8.234375 -1.40625 C 7.910156 -1.0625 7.585938 -0.78125 7.265625 -0.5625 C 6.941406 -0.351562 6.617188 -0.140625 6.296875 0.078125 C 5.816406 0.347656 5.359375 0.457031 4.921875 0.40625 C 4.222656 0.300781 3.929688 -0.078125 4.046875 -0.734375 C 4.203125 -1.265625 4.390625 -1.691406 4.609375 -2.015625 C 4.878906 -2.554688 5.390625 -3.257812 6.140625 -4.125 C 6.953125 -5.039062 8.59375 -6.628906 11.0625 -8.890625 L 12.03125 -9.703125 C 12.363281 -10.023438 12.632812 -10.265625 12.84375 -10.421875 C 15.8125 -16.242188 18.019531 -21.550781 19.46875 -26.34375 C 21.625 -33.175781 23 -38.695312 23.59375 -42.90625 C 24.019531 -45.707031 24.179688 -47.804688 24.078125 -49.203125 C 24.078125 -49.960938 23.941406 -50.582031 23.671875 -51.0625 C 23.347656 -51.8125 22.785156 -52.082031 21.984375 -51.875 C 21.441406 -51.757812 20.820312 -51.4375 20.125 -50.90625 C 18.9375 -50.039062 17.5625 -48.640625 16 -46.703125 C 14.4375 -44.648438 12.898438 -42.035156 11.390625 -38.859375 C 9.023438 -33.472656 7.140625 -27.816406 5.734375 -21.890625 C 4.390625 -16.617188 3.335938 -11.234375 2.578125 -5.734375 C 2.578125 -5.628906 2.414062 -4.125 2.09375 -1.21875 C 2.09375 -0.726562 1.984375 -0.375 1.765625 -0.15625 C 1.554688 0.0507812 1.375 0.078125 1.21875 -0.078125 C 1 -0.078125 0.890625 -0.160156 0.890625 -0.328125 C 0.835938 -0.648438 0.8125 -1.078125 0.8125 -1.609375 C 1.132812 -6.785156 1.296875 -9.425781 1.296875 -9.53125 C 1.398438 -11.3125 1.664062 -14.113281 2.09375 -17.9375 C 2.53125 -21.65625 3.019531 -25.375 3.5625 -29.09375 C 3.769531 -30.863281 4.144531 -33.472656 4.6875 -36.921875 L 6.140625 -46.859375 C 6.410156 -49.015625 6.679688 -50.765625 6.953125 -52.109375 L 6.953125 -52.59375 C 7.054688 -53.03125 7.242188 -53.273438 7.515625 -53.328125 C 7.617188 -53.378906 7.710938 -53.320312 7.796875 -53.15625 C 7.878906 -53 7.921875 -52.8125 7.921875 -52.59375 C 7.921875 -51.25 7.863281 -50.226562 7.75 -49.53125 C 7.59375 -48.019531 6.8125 -41.929688 5.40625 -31.265625 C 5.195312 -29.921875 4.914062 -27.898438 4.5625 -25.203125 C 4.21875 -22.515625 3.960938 -20.5 3.796875 -19.15625 C 3.796875 -19.039062 3.769531 -18.804688 3.71875 -18.453125 C 3.664062 -18.109375 3.625 -17.679688 3.59375 -17.171875 C 3.570312 -16.660156 3.53125 -16.21875 3.46875 -15.84375 C 3.53125 -16.050781 3.613281 -16.273438 3.71875 -16.515625 C 3.820312 -16.765625 3.898438 -16.96875 3.953125 -17.125 C 4.015625 -17.289062 4.046875 -17.398438 4.046875 -17.453125 C 4.097656 -17.722656 4.363281 -18.835938 4.84375 -20.796875 C 5.332031 -22.765625 5.710938 -24.265625 5.984375 -25.296875 C 7.597656 -31.273438 9.5625 -36.550781 11.875 -41.125 C 13.28125 -43.976562 14.867188 -46.457031 16.640625 -48.5625 C 17.609375 -49.6875 18.578125 -50.628906 19.546875 -51.390625 C 20.191406 -51.816406 20.707031 -52.113281 21.09375 -52.28125 C 23.03125 -53.195312 24.238281 -52.628906 24.71875 -50.578125 C 24.9375 -49.285156 25.019531 -48.265625 24.96875 -47.515625 C 24.914062 -45.835938 24.695312 -43.976562 24.3125 -41.9375 C 22.757812 -33.425781 20.445312 -25.425781 17.375 -17.9375 C 16.78125 -16.269531 15.914062 -14.359375 14.78125 -12.203125 C 17.375 -14.460938 19.34375 -16.128906 20.6875 -17.203125 C 23.539062 -19.523438 27.6875 -22.328125 33.125 -25.609375 L 33.6875 -25.859375 C 33.957031 -25.859375 34.117188 -25.832031 34.171875 -25.78125 Z M 5.578125 -0.8125 C 7.347656 -1.613281 9.367188 -4.0625 11.640625 -8.15625 C 11.253906 -7.78125 10.957031 -7.515625 10.75 -7.359375 C 9.289062 -6.222656 7.78125 -4.6875 6.21875 -2.75 C 5.675781 -2.101562 5.351562 -1.5625 5.25 -1.125 C 5.25 -0.96875 5.273438 -0.863281 5.328125 -0.8125 Z M 5.578125 -0.8125 "/></g></g></g><g fill="#000000" fill-opacity="1"><g transform="translate(254.348665, 211.261457)"><g><path d="M 2.578125 -19.3125 C 1.234375 -19.414062 0.398438 -20.171875 0.078125 -21.578125 C 0.0234375 -21.898438 0 -22.359375 0 -22.953125 C 0 -24.617188 0.347656 -26.070312 1.046875 -27.3125 C 1.484375 -27.957031 1.832031 -28.390625 2.09375 -28.609375 C 2.53125 -28.929688 3.019531 -29.09375 3.5625 -29.09375 C 4.144531 -29.09375 4.546875 -28.875 4.765625 -28.4375 C 5.085938 -27.957031 5.035156 -27.445312 4.609375 -26.90625 C 3.640625 -25.882812 2.722656 -25.265625 1.859375 -25.046875 C 1.265625 -24.941406 0.914062 -24.507812 0.8125 -23.75 C 0.695312 -22.832031 0.773438 -22.078125 1.046875 -21.484375 C 1.367188 -20.679688 1.878906 -20.226562 2.578125 -20.125 C 4.578125 -19.90625 7.273438 -21.492188 10.671875 -24.890625 L 11.390625 -25.609375 C 11.554688 -25.609375 11.664062 -25.582031 11.71875 -25.53125 C 11.769531 -25.425781 11.796875 -25.347656 11.796875 -25.296875 C 11.796875 -25.128906 11.742188 -24.992188 11.640625 -24.890625 C 10.453125 -23.484375 8.925781 -22.1875 7.0625 -21 C 5.207031 -19.820312 3.710938 -19.257812 2.578125 -19.3125 Z M 1.453125 -26.09375 C 2.585938 -26.632812 3.34375 -27.175781 3.71875 -27.71875 C 3.820312 -27.769531 3.820312 -27.847656 3.71875 -27.953125 C 3.71875 -28.066406 3.632812 -28.125 3.46875 -28.125 C 3.144531 -28.226562 2.847656 -28.144531 2.578125 -27.875 C 1.992188 -27.382812 1.617188 -26.789062 1.453125 -26.09375 Z M 1.453125 -26.09375 "/></g></g></g><g fill="#000000" fill-opacity="1"><g transform="translate(264.528668, 211.261457)"><g><path d="M 6.0625 -10.984375 C 5.09375 -11.097656 4.742188 -11.640625 5.015625 -12.609375 C 5.117188 -13.035156 5.28125 -13.359375 5.5 -13.578125 C 6.03125 -14.328125 6.488281 -14.863281 6.875 -15.1875 C 8.488281 -16.851562 10.289062 -18.363281 12.28125 -19.71875 L 13.890625 -20.84375 C 12.441406 -21.332031 10.878906 -21.578125 9.203125 -21.578125 L 3.234375 -21.09375 C 2.585938 -21.09375 2.101562 -21.144531 1.78125 -21.25 C 0.695312 -21.570312 0.238281 -22.191406 0.40625 -23.109375 C 0.5625 -24.828125 1.394531 -26.203125 2.90625 -27.234375 C 3.175781 -27.441406 3.554688 -27.492188 4.046875 -27.390625 C 4.304688 -27.285156 4.503906 -27.082031 4.640625 -26.78125 C 4.773438 -26.488281 4.738281 -26.207031 4.53125 -25.9375 C 4.46875 -25.882812 4.410156 -25.816406 4.359375 -25.734375 C 4.304688 -25.648438 4.238281 -25.582031 4.15625 -25.53125 C 4.082031 -25.476562 4.015625 -25.425781 3.953125 -25.375 C 3.691406 -25.050781 3.34375 -24.507812 2.90625 -23.75 C 2.582031 -23 2.800781 -22.597656 3.5625 -22.546875 C 4.039062 -22.429688 4.765625 -22.320312 5.734375 -22.21875 C 6.171875 -22.21875 6.773438 -22.226562 7.546875 -22.25 C 8.328125 -22.28125 8.910156 -22.296875 9.296875 -22.296875 C 11.285156 -22.296875 12.925781 -22.023438 14.21875 -21.484375 C 14.488281 -21.378906 14.835938 -21.4375 15.265625 -21.65625 L 21.734375 -25.453125 C 21.835938 -25.503906 22.132812 -25.613281 22.625 -25.78125 C 22.84375 -25.78125 22.976562 -25.695312 23.03125 -25.53125 C 23.1875 -25.375 23.160156 -25.238281 22.953125 -25.125 L 18.75 -22.625 L 15.84375 -20.921875 C 15.507812 -20.710938 15.425781 -20.445312 15.59375 -20.125 C 15.96875 -19.09375 15.882812 -18.039062 15.34375 -16.96875 C 13.675781 -13.84375 11.117188 -11.847656 7.671875 -10.984375 C 7.191406 -10.878906 6.65625 -10.878906 6.0625 -10.984375 Z M 6.296875 -11.875 C 7.160156 -11.875 7.835938 -11.984375 8.328125 -12.203125 C 10.472656 -12.898438 12.273438 -14.191406 13.734375 -16.078125 C 14.160156 -16.503906 14.507812 -17.097656 14.78125 -17.859375 L 15.03125 -18.671875 C 15.03125 -18.992188 15.003906 -19.234375 14.953125 -19.390625 C 14.953125 -19.984375 14.679688 -20.117188 14.140625 -19.796875 C 11.441406 -18.179688 8.988281 -16.210938 6.78125 -13.890625 C 6.570312 -13.679688 6.441406 -13.492188 6.390625 -13.328125 C 6.273438 -13.222656 6.164062 -13.0625 6.0625 -12.84375 C 5.894531 -12.570312 5.851562 -12.34375 5.9375 -12.15625 C 6.019531 -11.96875 6.140625 -11.875 6.296875 -11.875 Z M 6.296875 -11.875 "/></g></g></g><g fill="#000000" fill-opacity="1"><g transform="translate(286.019765, 211.261457)"><g><path d="M 9.609375 -22.21875 C 8.429688 -21.894531 7.757812 -22.351562 7.59375 -23.59375 C 7.539062 -24.238281 7.59375 -24.96875 7.75 -25.78125 C 7.863281 -26.363281 7.894531 -26.738281 7.84375 -26.90625 C 7.726562 -26.90625 7.617188 -26.878906 7.515625 -26.828125 C 7.410156 -26.773438 7.328125 -26.71875 7.265625 -26.65625 C 7.210938 -26.601562 7.144531 -26.535156 7.0625 -26.453125 C 6.988281 -26.378906 6.925781 -26.316406 6.875 -26.265625 C 5.632812 -25.179688 4.5 -24.398438 3.46875 -23.921875 C 3.09375 -23.703125 2.71875 -23.507812 2.34375 -23.34375 C 1.800781 -23.1875 1.378906 -23.242188 1.078125 -23.515625 C 0.785156 -23.785156 0.695312 -24.1875 0.8125 -24.71875 C 0.8125 -24.832031 0.863281 -25.050781 0.96875 -25.375 C 1.289062 -26.125 1.773438 -26.742188 2.421875 -27.234375 C 3.554688 -28.035156 4.6875 -28.035156 5.8125 -27.234375 L 5.890625 -27.140625 L 5.984375 -27.140625 C 6.359375 -26.878906 6.679688 -26.878906 6.953125 -27.140625 L 8.484375 -28.6875 C 8.753906 -28.894531 8.96875 -28.914062 9.125 -28.75 C 9.289062 -28.59375 9.316406 -28.460938 9.203125 -28.359375 C 9.148438 -27.929688 9.019531 -27.285156 8.8125 -26.421875 C 8.539062 -25.398438 8.429688 -24.457031 8.484375 -23.59375 C 8.535156 -23.164062 8.804688 -22.976562 9.296875 -23.03125 C 10.097656 -23.132812 12.25 -24.019531 15.75 -25.6875 C 15.96875 -25.6875 16.101562 -25.632812 16.15625 -25.53125 C 16.269531 -25.257812 16.132812 -25.015625 15.75 -24.796875 C 12.945312 -23.398438 10.898438 -22.539062 9.609375 -22.21875 Z M 2.75 -24.40625 C 3.34375 -24.613281 3.960938 -24.910156 4.609375 -25.296875 C 4.984375 -25.554688 5.195312 -25.769531 5.25 -25.9375 C 5.300781 -26.039062 5.234375 -26.132812 5.046875 -26.21875 C 4.859375 -26.300781 4.628906 -26.34375 4.359375 -26.34375 C 3.929688 -26.226562 3.609375 -26.117188 3.390625 -26.015625 C 2.742188 -25.535156 2.3125 -25.023438 2.09375 -24.484375 C 2.363281 -24.265625 2.582031 -24.238281 2.75 -24.40625 Z M 2.75 -24.40625 "/></g></g></g><g fill="#000000" fill-opacity="1"><g transform="translate(300.562619, 211.261457)"><g><path d="M 2.5 -29.25 C 2.34375 -29.25 2.222656 -29.273438 2.140625 -29.328125 C 2.054688 -29.378906 2.039062 -29.460938 2.09375 -29.578125 C 2.207031 -30.546875 2.476562 -31.351562 2.90625 -32 C 2.90625 -32.050781 3.039062 -32.078125 3.3125 -32.078125 C 3.363281 -32.078125 3.472656 -31.992188 3.640625 -31.828125 C 3.691406 -31.722656 3.71875 -31.5625 3.71875 -31.34375 C 3.445312 -30.375 3.257812 -29.8125 3.15625 -29.65625 C 2.988281 -29.382812 2.769531 -29.25 2.5 -29.25 Z M 2.265625 -20.765625 C 1.023438 -21.140625 0.40625 -21.972656 0.40625 -23.265625 C 0.40625 -24.128906 0.59375 -24.910156 0.96875 -25.609375 C 1.132812 -25.929688 1.40625 -26.066406 1.78125 -26.015625 C 2.15625 -25.910156 2.34375 -25.671875 2.34375 -25.296875 L 2.34375 -24.40625 C 2.34375 -24.1875 2.316406 -23.992188 2.265625 -23.828125 L 2.265625 -23.59375 C 2.210938 -23 2.359375 -22.523438 2.703125 -22.171875 C 3.054688 -21.828125 3.53125 -21.65625 4.125 -21.65625 C 4.550781 -21.65625 5.085938 -21.789062 5.734375 -22.0625 C 6.703125 -22.4375 7.804688 -23.109375 9.046875 -24.078125 L 10.984375 -25.53125 C 11.253906 -25.695312 11.441406 -25.75 11.546875 -25.6875 C 11.660156 -25.6875 11.71875 -25.601562 11.71875 -25.4375 C 11.71875 -25.28125 11.660156 -25.203125 11.546875 -25.203125 C 9.128906 -23.210938 7.140625 -21.84375 5.578125 -21.09375 C 4.441406 -20.550781 3.335938 -20.441406 2.265625 -20.765625 Z M 2.265625 -20.765625 "/></g></g></g><g clip-path="url(#b7ae8996fe)"><path fill="#fbfaf9" d="M 82.164062 225.175781 L 292.785156 225.175781 L 292.785156 260.957031 L 82.164062 260.957031 Z M 82.164062 225.175781 " fill-opacity="1" fill-rule="nonzero"/></g><g fill="#000000" fill-opacity="1"><g transform="translate(90.24867, 246.817191)"><g><path d="M 4.3125 -7.546875 C 4.84375 -7.546875 5.359375 -7.441406 5.859375 -7.234375 C 6.367188 -7.035156 6.804688 -6.753906 7.171875 -6.390625 L 6.4375 -5.46875 C 6.15625 -5.757812 5.828125 -5.988281 5.453125 -6.15625 C 5.085938 -6.332031 4.71875 -6.421875 4.34375 -6.421875 C 3.582031 -6.421875 2.941406 -6.164062 2.421875 -5.65625 C 1.910156 -5.144531 1.65625 -4.519531 1.65625 -3.78125 C 1.65625 -3.03125 1.910156 -2.398438 2.421875 -1.890625 C 2.941406 -1.378906 3.582031 -1.125 4.34375 -1.125 C 5.113281 -1.125 5.8125 -1.421875 6.4375 -2.015625 L 7.1875 -1.1875 C 6.800781 -0.800781 6.347656 -0.5 5.828125 -0.28125 C 5.316406 -0.0625 4.796875 0.046875 4.265625 0.046875 C 3.171875 0.046875 2.242188 -0.316406 1.484375 -1.046875 C 0.734375 -1.773438 0.359375 -2.679688 0.359375 -3.765625 C 0.359375 -4.828125 0.738281 -5.722656 1.5 -6.453125 C 2.269531 -7.179688 3.207031 -7.546875 4.3125 -7.546875 Z M 4.3125 -7.546875 "/></g></g></g><g fill="#000000" fill-opacity="1"><g transform="translate(104.17741, 246.817191)"><g><path d="M 1.5 -6.453125 C 2.269531 -7.179688 3.21875 -7.546875 4.34375 -7.546875 C 5.46875 -7.546875 6.410156 -7.179688 7.171875 -6.453125 C 7.941406 -5.722656 8.328125 -4.820312 8.328125 -3.75 C 8.328125 -2.675781 7.941406 -1.773438 7.171875 -1.046875 C 6.410156 -0.316406 5.46875 0.046875 4.34375 0.046875 C 3.21875 0.046875 2.269531 -0.316406 1.5 -1.046875 C 0.738281 -1.773438 0.359375 -2.675781 0.359375 -3.75 C 0.359375 -4.820312 0.738281 -5.722656 1.5 -6.453125 Z M 4.359375 -6.40625 C 3.609375 -6.40625 2.96875 -6.148438 2.4375 -5.640625 C 1.914062 -5.128906 1.65625 -4.5 1.65625 -3.75 C 1.65625 -3.007812 1.921875 -2.378906 2.453125 -1.859375 C 2.984375 -1.335938 3.617188 -1.078125 4.359375 -1.078125 C 5.097656 -1.078125 5.726562 -1.335938 6.25 -1.859375 C 6.769531 -2.378906 7.03125 -3.007812 7.03125 -3.75 C 7.03125 -4.5 6.769531 -5.128906 6.25 -5.640625 C 5.726562 -6.148438 5.097656 -6.40625 4.359375 -6.40625 Z M 4.359375 -6.40625 "/></g></g></g><g fill="#000000" fill-opacity="1"><g transform="translate(119.319133, 246.817191)"><g><path d="M 7.5 0 L 6.265625 0 L 2.25 -5.390625 L 2.25 0 L 0.984375 0 L 0.984375 -7.515625 L 2.234375 -7.515625 L 6.265625 -2.109375 L 6.265625 -7.515625 L 7.5 -7.515625 Z M 7.5 0 "/></g></g></g><g fill="#000000" fill-opacity="1"><g transform="translate(134.267645, 246.817191)"><g><path d="M 3.453125 -7.5625 C 4.429688 -7.5625 5.3125 -7.304688 6.09375 -6.796875 L 5.5625 -5.671875 C 4.789062 -6.140625 4.054688 -6.375 3.359375 -6.375 C 2.984375 -6.375 2.6875 -6.304688 2.46875 -6.171875 C 2.25 -6.035156 2.140625 -5.84375 2.140625 -5.59375 C 2.140625 -5.34375 2.238281 -5.128906 2.4375 -4.953125 C 2.632812 -4.773438 2.882812 -4.644531 3.1875 -4.5625 C 3.488281 -4.476562 3.8125 -4.375 4.15625 -4.25 C 4.507812 -4.125 4.835938 -3.992188 5.140625 -3.859375 C 5.441406 -3.722656 5.691406 -3.503906 5.890625 -3.203125 C 6.085938 -2.910156 6.1875 -2.550781 6.1875 -2.125 C 6.1875 -1.46875 5.921875 -0.941406 5.390625 -0.546875 C 4.867188 -0.148438 4.1875 0.046875 3.34375 0.046875 C 2.769531 0.046875 2.210938 -0.0546875 1.671875 -0.265625 C 1.140625 -0.484375 0.675781 -0.78125 0.28125 -1.15625 L 0.828125 -2.25 C 1.203125 -1.894531 1.617188 -1.625 2.078125 -1.4375 C 2.535156 -1.25 2.96875 -1.15625 3.375 -1.15625 C 3.8125 -1.15625 4.15625 -1.234375 4.40625 -1.390625 C 4.65625 -1.546875 4.78125 -1.769531 4.78125 -2.0625 C 4.78125 -2.320312 4.675781 -2.535156 4.46875 -2.703125 C 4.269531 -2.878906 4.019531 -3.007812 3.71875 -3.09375 C 3.425781 -3.175781 3.101562 -3.273438 2.75 -3.390625 C 2.394531 -3.515625 2.066406 -3.640625 1.765625 -3.765625 C 1.472656 -3.898438 1.222656 -4.113281 1.015625 -4.40625 C 0.816406 -4.707031 0.71875 -5.0625 0.71875 -5.46875 C 0.71875 -6.113281 0.96875 -6.625 1.46875 -7 C 1.96875 -7.375 2.628906 -7.5625 3.453125 -7.5625 Z M 3.453125 -7.5625 "/></g></g></g><g fill="#000000" fill-opacity="1"><g transform="translate(147.391306, 246.817191)"><g><path d="M 7.375 -7.515625 L 7.375 -3.109375 C 7.375 -2.128906 7.082031 -1.359375 6.5 -0.796875 C 5.925781 -0.234375 5.128906 0.046875 4.109375 0.046875 C 3.097656 0.046875 2.300781 -0.234375 1.71875 -0.796875 C 1.132812 -1.359375 0.84375 -2.128906 0.84375 -3.109375 L 0.84375 -7.515625 L 2.109375 -7.515625 L 2.109375 -3.109375 C 2.109375 -2.484375 2.285156 -1.988281 2.640625 -1.625 C 3.003906 -1.257812 3.5 -1.078125 4.125 -1.078125 C 4.738281 -1.078125 5.222656 -1.253906 5.578125 -1.609375 C 5.929688 -1.972656 6.109375 -2.472656 6.109375 -3.109375 L 6.109375 -7.515625 Z M 7.375 -7.515625 "/></g></g></g><g fill="#000000" fill-opacity="1"><g transform="translate(162.03925, 246.817191)"><g><path d="M 2.25 -1.15625 L 5.5 -1.15625 L 5.5 0 L 0.984375 0 L 0.984375 -7.515625 L 2.25 -7.515625 Z M 2.25 -1.15625 "/></g></g></g><g fill="#000000" fill-opacity="1"><g transform="translate(174.218292, 246.817191)"><g><path d="M 6.125 -6.375 L 3.734375 -6.375 L 3.734375 0 L 2.46875 0 L 2.46875 -6.375 L 0.09375 -6.375 L 0.09375 -7.515625 L 6.125 -7.515625 Z M 6.125 -6.375 "/></g></g></g><g fill="#000000" fill-opacity="1"><g transform="translate(186.880378, 246.817191)"><g/></g></g><g fill="#000000" fill-opacity="1"><g transform="translate(196.096728, 246.817191)"><g><path d="M 6.40625 0.203125 L 5.234375 -0.9375 C 4.535156 -0.28125 3.78125 0.046875 2.96875 0.046875 C 2.300781 0.046875 1.738281 -0.148438 1.28125 -0.546875 C 0.832031 -0.953125 0.609375 -1.453125 0.609375 -2.046875 C 0.609375 -2.535156 0.75 -2.9375 1.03125 -3.25 C 1.320312 -3.5625 1.722656 -3.851562 2.234375 -4.125 C 1.753906 -4.769531 1.515625 -5.351562 1.515625 -5.875 C 1.515625 -6.375 1.691406 -6.78125 2.046875 -7.09375 C 2.410156 -7.40625 2.882812 -7.5625 3.46875 -7.5625 C 4.019531 -7.5625 4.472656 -7.414062 4.828125 -7.125 C 5.179688 -6.832031 5.359375 -6.453125 5.359375 -5.984375 C 5.359375 -5.742188 5.3125 -5.519531 5.21875 -5.3125 C 5.125 -5.101562 4.976562 -4.914062 4.78125 -4.75 C 4.59375 -4.582031 4.410156 -4.441406 4.234375 -4.328125 C 4.054688 -4.222656 3.828125 -4.09375 3.546875 -3.9375 C 3.898438 -3.53125 4.425781 -2.988281 5.125 -2.3125 C 5.375 -2.695312 5.597656 -3.144531 5.796875 -3.65625 L 6.609375 -3.0625 C 6.367188 -2.5 6.101562 -2.019531 5.8125 -1.625 L 7.046875 -0.4375 Z M 2.484375 -5.875 C 2.484375 -5.5 2.671875 -5.054688 3.046875 -4.546875 C 3.484375 -4.773438 3.816406 -4.992188 4.046875 -5.203125 C 4.273438 -5.421875 4.390625 -5.679688 4.390625 -5.984375 C 4.390625 -6.234375 4.304688 -6.429688 4.140625 -6.578125 C 3.972656 -6.722656 3.753906 -6.796875 3.484375 -6.796875 C 3.179688 -6.796875 2.9375 -6.707031 2.75 -6.53125 C 2.570312 -6.363281 2.484375 -6.144531 2.484375 -5.875 Z M 3.015625 -0.875 C 3.546875 -0.875 4.0625 -1.117188 4.5625 -1.609375 C 3.707031 -2.460938 3.097656 -3.097656 2.734375 -3.515625 C 2.390625 -3.304688 2.117188 -3.097656 1.921875 -2.890625 C 1.722656 -2.679688 1.625 -2.429688 1.625 -2.140625 C 1.625 -1.773438 1.753906 -1.472656 2.015625 -1.234375 C 2.285156 -0.992188 2.617188 -0.875 3.015625 -0.875 Z M 3.015625 -0.875 "/></g></g></g><g fill="#000000" fill-opacity="1"><g transform="translate(209.660505, 246.817191)"><g/></g></g><g fill="#000000" fill-opacity="1"><g transform="translate(218.876855, 246.817191)"><g><path d="M 4.3125 -7.546875 C 4.84375 -7.546875 5.359375 -7.441406 5.859375 -7.234375 C 6.367188 -7.035156 6.804688 -6.753906 7.171875 -6.390625 L 6.4375 -5.46875 C 6.15625 -5.757812 5.828125 -5.988281 5.453125 -6.15625 C 5.085938 -6.332031 4.71875 -6.421875 4.34375 -6.421875 C 3.582031 -6.421875 2.941406 -6.164062 2.421875 -5.65625 C 1.910156 -5.144531 1.65625 -4.519531 1.65625 -3.78125 C 1.65625 -3.03125 1.910156 -2.398438 2.421875 -1.890625 C 2.941406 -1.378906 3.582031 -1.125 4.34375 -1.125 C 5.113281 -1.125 5.8125 -1.421875 6.4375 -2.015625 L 7.1875 -1.1875 C 6.800781 -0.800781 6.347656 -0.5 5.828125 -0.28125 C 5.316406 -0.0625 4.796875 0.046875 4.265625 0.046875 C 3.171875 0.046875 2.242188 -0.316406 1.484375 -1.046875 C 0.734375 -1.773438 0.359375 -2.679688 0.359375 -3.765625 C 0.359375 -4.828125 0.738281 -5.722656 1.5 -6.453125 C 2.269531 -7.179688 3.207031 -7.546875 4.3125 -7.546875 Z M 4.3125 -7.546875 "/></g></g></g><g fill="#000000" fill-opacity="1"><g transform="translate(232.805595, 246.817191)"><g><path d="M 1.5 -6.453125 C 2.269531 -7.179688 3.21875 -7.546875 4.34375 -7.546875 C 5.46875 -7.546875 6.410156 -7.179688 7.171875 -6.453125 C 7.941406 -5.722656 8.328125 -4.820312 8.328125 -3.75 C 8.328125 -2.675781 7.941406 -1.773438 7.171875 -1.046875 C 6.410156 -0.316406 5.46875 0.046875 4.34375 0.046875 C 3.21875 0.046875 2.269531 -0.316406 1.5 -1.046875 C 0.738281 -1.773438 0.359375 -2.675781 0.359375 -3.75 C 0.359375 -4.820312 0.738281 -5.722656 1.5 -6.453125 Z M 4.359375 -6.40625 C 3.609375 -6.40625 2.96875 -6.148438 2.4375 -5.640625 C 1.914062 -5.128906 1.65625 -4.5 1.65625 -3.75 C 1.65625 -3.007812 1.921875 -2.378906 2.453125 -1.859375 C 2.984375 -1.335938 3.617188 -1.078125 4.359375 -1.078125 C 5.097656 -1.078125 5.726562 -1.335938 6.25 -1.859375 C 6.769531 -2.378906 7.03125 -3.007812 7.03125 -3.75 C 7.03125 -4.5 6.769531 -5.128906 6.25 -5.640625 C 5.726562 -6.148438 5.097656 -6.40625 4.359375 -6.40625 Z M 4.359375 -6.40625 "/></g></g></g><g fill="#000000" fill-opacity="1"><g transform="translate(247.947318, 246.817191)"><g><path d="M 5.84375 -1.703125 L 2.046875 -1.703125 L 1.328125 0 L 0.015625 0 L 3.328125 -7.515625 L 4.625 -7.515625 L 7.90625 0 L 6.5625 0 Z M 5.359375 -2.828125 L 3.9375 -6.15625 L 2.515625 -2.828125 Z M 5.359375 -2.828125 "/></g></g></g><g fill="#000000" fill-opacity="1"><g transform="translate(262.316164, 246.817191)"><g><path d="M 4.3125 -7.546875 C 4.84375 -7.546875 5.359375 -7.441406 5.859375 -7.234375 C 6.367188 -7.035156 6.804688 -6.753906 7.171875 -6.390625 L 6.4375 -5.46875 C 6.15625 -5.757812 5.828125 -5.988281 5.453125 -6.15625 C 5.085938 -6.332031 4.71875 -6.421875 4.34375 -6.421875 C 3.582031 -6.421875 2.941406 -6.164062 2.421875 -5.65625 C 1.910156 -5.144531 1.65625 -4.519531 1.65625 -3.78125 C 1.65625 -3.03125 1.910156 -2.398438 2.421875 -1.890625 C 2.941406 -1.378906 3.582031 -1.125 4.34375 -1.125 C 5.113281 -1.125 5.8125 -1.421875 6.4375 -2.015625 L 7.1875 -1.1875 C 6.800781 -0.800781 6.347656 -0.5 5.828125 -0.28125 C 5.316406 -0.0625 4.796875 0.046875 4.265625 0.046875 C 3.171875 0.046875 2.242188 -0.316406 1.484375 -1.046875 C 0.734375 -1.773438 0.359375 -2.679688 0.359375 -3.765625 C 0.359375 -4.828125 0.738281 -5.722656 1.5 -6.453125 C 2.269531 -7.179688 3.207031 -7.546875 4.3125 -7.546875 Z M 4.3125 -7.546875 "/></g></g></g><g fill="#000000" fill-opacity="1"><g transform="translate(276.244904, 246.817191)"><g><path d="M 7.5 0 L 6.234375 0 L 6.234375 -3.109375 L 2.25 -3.109375 L 2.25 0 L 0.984375 0 L 0.984375 -7.515625 L 2.25 -7.515625 L 2.25 -4.25 L 6.234375 -4.25 L 6.234375 -7.515625 L 7.5 -7.515625 Z M 7.5 0 "/></g></g></g></svg>